<svg xmlns="http://www.w3.org/2000/svg" width="164" height="32" viewBox="0 0 164 32" fill="none"><mask id="mask0" style="mask-type:alpha" maskUnits="userSpaceOnUse" x="0" y="1" width="164" height="31"><path d="M14.8383 13.7824L11.4063 13.0757C8.07526 12.3689 6.66209 11.2582 6.66209 9.44076C6.66209 7.21943 8.6809 5.70489 11.6082 5.70489C14.5355 5.70489 16.6552 7.21943 16.8571 9.54173H22.5098C22.4088 4.59423 17.9674 1.0603 11.6082 1.0603C5.04703 1.0603 0.706585 4.59423 0.706585 9.9456C0.706585 14.2873 3.2301 17.0135 8.47902 18.1241L12.2138 18.9319C15.7467 19.7396 17.1599 20.8503 17.1599 22.6677C17.1599 24.8891 14.9392 26.5046 11.8101 26.5046C8.37808 26.5046 6.05644 24.99 5.75362 22.5668H0C0.201881 27.9181 4.64327 31.2501 11.5072 31.2501C18.674 31.2501 23.1154 27.7162 23.1154 21.961C23.1154 17.5183 20.6928 15.095 14.8383 13.7824Z" fill="black"></path><path d="M38.7617 1.76685H26.7498V30.5431H32.8062V21.4559H38.4589C44.5153 21.4559 48.7548 17.5181 48.7548 11.6618C48.7548 5.70465 44.7172 1.76685 38.7617 1.76685ZM37.1466 16.7103H32.8062V6.61337H37.1466C40.5786 6.61337 42.5974 8.43082 42.5974 11.7628C42.5974 14.9938 40.5786 16.7103 37.1466 16.7103Z" fill="black"></path><path d="M104.474 10.9551C104.474 5.30077 100.639 1.76685 94.2793 1.76685H82.2673V30.5431H88.3238V20.0423H93.2699L98.6197 30.5431H105.383L99.3263 19.1336C102.556 17.821 104.474 14.59 104.474 10.9551ZM93.4717 15.4987H88.2228V6.41144H93.4717C96.5 6.41144 98.3169 8.12791 98.3169 10.9551C98.3169 13.8832 96.5 15.4987 93.4717 15.4987Z" fill="black"></path><path d="M106.795 6.71434H115.476V30.5431H121.432V6.71434H130.113V1.76685H106.795V6.71434Z" fill="black"></path><path d="M139.4 1.76685H133.344V30.5431H139.4V1.76685Z" fill="black"></path><path d="M163.322 6.71434V1.76685H144.345V30.5431H163.322V25.5956H150.301V18.3258H162.615V13.6812H150.301V6.71434H163.322Z" fill="black"></path></mask><g mask="url(#mask0)"><rect y="1.0603" width="163.322" height="30.1898" fill="#212121"></rect></g><path d="M77.5663 24.3146C78.0415 23.596 78.3979 22.8774 78.7542 22.0989C78.576 22.5181 78.3385 22.9971 78.7542 22.0989C79.0512 21.3803 78.9324 21.7396 78.7542 22.0989C80.0015 19.2843 80.3578 16.0506 79.7639 13.0564C79.17 10.0622 77.6851 7.3075 75.547 5.15168C73.2306 2.8162 70.2015 1.3191 66.9943 0.89991C64.1434 0.480722 61.2331 0.959795 58.6198 2.09759C55.6501 3.47493 53.1556 5.8104 51.552 8.74472C50.1265 11.4395 49.4732 14.6134 49.8296 17.6674C50.1265 20.6018 51.3144 23.3564 53.1556 25.632C55.1156 28.0274 57.7883 29.8239 60.758 30.6623C63.6683 31.5007 66.7567 31.4408 69.6076 30.4826C72.8743 29.4047 75.7251 27.189 77.5663 24.3146Z" fill="#4D592E"></path><path d="M75.9008 23.1761C76.2571 22.5772 76.6135 21.9784 76.9105 21.3197C76.7323 21.679 76.5541 22.0982 76.9105 21.3197C77.148 20.7208 77.0293 21.0202 76.9105 21.3197C77.9796 18.9243 78.2171 16.2295 77.742 13.6545C77.2668 11.1394 76.0196 8.80389 74.1784 6.94748C72.2184 4.97131 69.6645 3.71374 66.9324 3.35444C64.5566 2.99514 62.0621 3.35444 59.8645 4.37247C57.37 5.51027 55.2318 7.54632 53.9252 10.0016C52.6779 12.2772 52.2028 14.9121 52.4997 17.4871C52.7373 19.9423 53.747 22.2778 55.2912 24.1941C56.9542 26.2301 59.2112 27.7272 61.7057 28.4459C64.1409 29.1645 66.7542 29.1046 69.1893 28.2662C71.9214 27.4278 74.2971 25.5714 75.9008 23.1761Z" fill="#4D592E"></path><g clip-path="url(#clip0)"><path d="M77.5428 15.8263C77.3808 15.8263 77.2188 15.7722 77.0838 15.6911C76.8948 15.5558 76.8138 15.3664 76.7868 15.2852C76.7868 15.177 76.7598 15.0959 76.7598 14.9876C76.7598 14.9065 76.8138 14.69 76.9758 14.5006C77.0838 14.3924 77.2458 14.3113 77.4078 14.2571C77.6508 14.203 77.8128 13.9595 77.7588 13.716C77.7048 13.4725 77.4618 13.3102 77.2188 13.3643C77.0568 13.3914 76.8948 13.3914 76.7328 13.3102C76.5168 13.202 76.4088 13.0397 76.3548 12.9585C76.3008 12.7962 76.2738 12.6338 76.2198 12.4715C76.2198 12.4715 76.1658 12.201 76.3278 11.9033C76.4088 11.7681 76.5438 11.6598 76.7058 11.5787C76.9488 11.4705 77.0298 11.1999 76.9488 10.9835C76.8138 10.7941 76.5438 10.6859 76.3278 10.7941C76.1658 10.8482 76.0038 10.8752 75.8418 10.8482C75.5178 10.767 75.3559 10.5506 75.3559 10.5506V10.5776C75.3019 10.4694 75.2479 10.3612 75.1939 10.28C75.1669 10.1718 75.1399 9.98243 75.2209 9.76599C75.2749 9.60366 75.3829 9.46838 75.5178 9.38722C75.7338 9.25194 75.7608 8.95433 75.6258 8.76495C75.4908 8.54851 75.1939 8.52145 75.0049 8.65673C74.8699 8.73789 74.7079 8.81906 74.5459 8.792C74.2759 8.792 74.0869 8.65673 74.0329 8.60262C73.9519 8.4944 73.8439 8.38618 73.7629 8.27796L73.7899 8.30501C73.7899 8.30501 73.6279 8.08857 73.6549 7.73685C73.6819 7.57452 73.7629 7.41219 73.8709 7.30397C74.0329 7.11458 74.0329 6.84403 73.8439 6.65465C73.6549 6.49232 73.3849 6.49232 73.1959 6.6817C73.0879 6.78992 72.9259 6.89814 72.764 6.9252C72.44 6.97931 72.197 6.84403 72.197 6.84403L72.224 6.87109C72.143 6.81698 72.062 6.73581 71.981 6.6817C71.927 6.62759 71.792 6.46526 71.765 6.16765C71.738 6.00532 71.792 5.84299 71.873 5.70772C72.008 5.49127 71.927 5.22072 71.711 5.08545C71.495 4.95017 71.225 5.03134 71.09 5.24778C71.009 5.38305 70.874 5.49127 70.739 5.57244C70.469 5.68066 70.2261 5.62655 70.1721 5.5995C70.0371 5.49127 69.9021 5.43716 69.7941 5.38305C69.7941 5.38305 69.5511 5.24778 69.4431 4.92312C69.3891 4.76079 69.3891 4.59845 69.4431 4.43612C69.5241 4.19263 69.3891 3.94913 69.1461 3.86797C68.9031 3.7868 68.6601 3.92208 68.5791 4.16557C68.5251 4.3279 68.4171 4.46318 68.2821 4.5714C68.0661 4.73373 67.8501 4.73373 67.7691 4.73373C67.6341 4.70668 67.4992 4.67962 67.3642 4.65256H67.4722C67.4722 4.65256 67.2022 4.5714 67.0402 4.27379C66.9592 4.13852 66.9322 3.94913 66.9592 3.7868C66.9862 3.5433 66.7972 3.29981 66.5542 3.27275C66.3112 3.2457 66.0682 3.43508 66.0412 3.67858C66.0142 3.84091 65.9602 4.00324 65.8522 4.11146C65.6632 4.3279 65.4472 4.35496 65.3662 4.38201C65.2582 4.38201 65.1232 4.38201 65.0153 4.38201C64.9613 4.38201 64.7183 4.3279 64.5293 4.08441C64.4213 3.94913 64.3673 3.81386 64.3403 3.62447C64.3403 3.38097 64.1243 3.19159 63.8813 3.21864C63.6383 3.2457 63.4493 3.46214 63.4763 3.70563C63.5033 3.86797 63.4493 4.0303 63.3683 4.19263C63.2063 4.43612 63.0173 4.51729 62.9363 4.54434C62.8013 4.5714 62.6663 4.59845 62.5583 4.62551C62.4503 4.62551 62.2884 4.5714 62.0994 4.43612C61.9644 4.3279 61.8834 4.19263 61.8294 4.0303C61.7484 3.7868 61.5054 3.65152 61.2624 3.73269C61.0194 3.81386 60.8844 4.05735 60.9384 4.30085C60.9924 4.46318 60.9924 4.62551 60.9384 4.78784C60.8574 5.03134 60.6954 5.16661 60.6144 5.22072C60.4794 5.27483 60.3174 5.32894 60.1824 5.41011L60.2634 5.356C60.2634 5.356 59.9934 5.43716 59.6965 5.30189C59.5345 5.22072 59.4265 5.1125 59.3455 4.97723C59.2105 4.76079 58.9405 4.67962 58.7245 4.78784C58.5085 4.92312 58.4275 5.19367 58.5355 5.41011C58.6165 5.54539 58.6435 5.73477 58.6435 5.8971C58.5895 6.24882 58.4005 6.41115 58.4005 6.41115C58.3195 6.46526 58.2385 6.51937 58.1575 6.57348C58.1035 6.60054 57.8875 6.70876 57.5905 6.62759C57.4285 6.60054 57.2935 6.49232 57.1856 6.35704C57.0236 6.16765 56.7266 6.1406 56.5376 6.30293C56.3486 6.46526 56.3216 6.76287 56.4836 6.95225C56.5916 7.08753 56.6726 7.2228 56.6726 7.41219C56.6996 7.68274 56.5916 7.89918 56.5376 7.95329C56.4566 8.03446 56.3486 8.14268 56.2676 8.2509V8.22385C56.2676 8.22385 56.0516 8.41323 55.7276 8.41323C55.5656 8.41323 55.4036 8.35912 55.2686 8.2509C55.0796 8.08857 54.7826 8.14268 54.6207 8.33207C54.4587 8.52145 54.5127 8.81906 54.7016 8.98139C54.8366 9.08961 54.9446 9.22488 54.9716 9.38722C55.0526 9.63071 54.9986 9.8201 54.9716 9.92832C54.9176 10.0095 54.8636 10.0907 54.8366 10.1718C54.7826 10.2259 54.6207 10.3883 54.3507 10.4153C54.1887 10.4424 54.0267 10.4153 53.8647 10.3341C53.6487 10.2259 53.3787 10.3071 53.2707 10.5506C53.1627 10.767 53.2437 11.0376 53.4867 11.1458C53.6487 11.227 53.7567 11.3352 53.8377 11.4705C53.9457 11.6598 53.9457 11.8492 53.9457 11.9575C53.8647 12.1468 53.8107 12.3362 53.7297 12.5256L53.7567 12.4444C53.7567 12.4444 53.6487 12.6879 53.3247 12.8232C53.1627 12.8773 53.0007 12.9044 52.8387 12.8503C52.5957 12.7962 52.3527 12.9585 52.2987 13.202C52.2447 13.4455 52.4067 13.689 52.6497 13.7431C52.8117 13.7702 52.9467 13.8513 53.0547 13.9866C53.2167 14.176 53.2437 14.3654 53.2707 14.4736C53.2437 14.5818 53.2437 14.69 53.2167 14.7982C53.1897 14.8524 53.1087 15.0688 52.8657 15.2582C52.7307 15.3393 52.5687 15.3935 52.4067 15.3935C52.1637 15.3935 51.9478 15.5828 51.9478 15.8263C51.9478 16.0698 52.1367 16.2863 52.3797 16.2863C52.5417 16.2863 52.7037 16.3404 52.8387 16.4486C53.0547 16.6109 53.1357 16.8274 53.1357 16.9085C53.1357 17.0438 53.1627 17.1791 53.1627 17.3414C53.1627 17.4226 53.1087 17.639 52.9197 17.8284C52.8117 17.9366 52.6497 18.0178 52.4877 18.0449C52.2447 18.099 52.0827 18.3154 52.1097 18.586C52.1637 18.8295 52.3797 18.9918 52.6497 18.9647C52.8117 18.9377 52.9737 18.9647 53.1357 19.0188C53.3787 19.1271 53.4867 19.3165 53.5137 19.3976C53.5407 19.5329 53.5947 19.6682 53.6217 19.8034L53.5947 19.7223C53.5947 19.7223 53.6487 19.9928 53.4867 20.2904C53.4597 20.3446 53.3247 20.4528 53.1627 20.5339C52.9197 20.6422 52.8117 20.8857 52.9197 21.1292C53.0277 21.3726 53.2707 21.4809 53.5137 21.3726C53.6757 21.3185 53.8377 21.2915 53.9997 21.3185C54.2427 21.3726 54.4047 21.535 54.4587 21.5891C54.5397 21.7244 54.6207 21.8867 54.7016 22.022C54.7286 22.1302 54.7556 22.2925 54.6746 22.509C54.6207 22.6713 54.5127 22.8066 54.3777 22.8877C54.1347 23.023 54.1077 23.3206 54.2427 23.51C54.3777 23.6994 54.6746 23.7535 54.8636 23.6182C54.9986 23.5371 55.1606 23.4559 55.3226 23.483C55.4846 23.483 55.6196 23.5371 55.7276 23.5912C55.8626 23.7535 55.9706 23.8888 56.1056 24.0511C56.1596 24.1323 56.2136 24.3217 56.1866 24.5652C56.1596 24.7275 56.0786 24.8898 55.9706 24.998C55.8086 25.1874 55.8086 25.458 55.9976 25.6474C56.1866 25.8097 56.4566 25.8097 56.6456 25.6203C56.7536 25.5121 56.9156 25.4039 57.0776 25.3768C57.2396 25.3498 57.3745 25.3768 57.4825 25.4039C57.6445 25.5391 57.8065 25.6744 57.9685 25.7826C58.0225 25.8638 58.1035 26.0261 58.1305 26.2155C58.1575 26.3779 58.1035 26.5402 58.0225 26.6755C57.9145 26.8919 57.9685 27.1895 58.1845 27.2977C58.4005 27.433 58.6705 27.3518 58.8055 27.1354C58.8865 27.0001 59.0215 26.8919 59.1565 26.8107C59.3185 26.7296 59.4805 26.7296 59.5885 26.7566C59.7775 26.8648 59.9934 26.946 60.2094 27.0542C60.2904 27.1354 60.3984 27.2436 60.4524 27.433C60.5064 27.5953 60.5064 27.7577 60.4524 27.92C60.3714 28.1635 60.5064 28.407 60.7494 28.4882C60.9924 28.5693 61.2354 28.434 61.3164 28.1905C61.3704 28.0282 61.4784 27.8929 61.6134 27.7847C61.7484 27.6765 61.8834 27.6494 61.9914 27.6224C62.2074 27.6765 62.4234 27.7306 62.6663 27.7847C62.7473 27.8388 62.8823 27.9471 62.9633 28.1094C63.0443 28.2447 63.0713 28.434 63.0443 28.5964C63.0173 28.8399 63.2063 29.0834 63.4493 29.1104C63.6923 29.1375 63.9353 28.9481 63.9623 28.7046C63.9893 28.5423 64.0433 28.3799 64.1513 28.2717C64.2593 28.1364 64.3943 28.0823 64.4753 28.0553C64.6643 28.0553 64.8263 28.0553 65.0153 28.0553C65.0153 28.0553 65.0153 28.0553 65.0422 28.0553C65.1232 28.0823 65.3392 28.1364 65.5012 28.3258C65.6092 28.4611 65.6632 28.5964 65.6902 28.7858C65.7172 29.0293 65.9332 29.2186 66.1762 29.1916C66.4192 29.1645 66.6082 28.9481 66.5812 28.7046C66.5542 28.5423 66.6082 28.3799 66.6892 28.2176C66.8782 27.92 67.1212 27.8388 67.1212 27.8388H67.0942C67.2022 27.8118 67.3102 27.8118 67.4182 27.7847C67.4722 27.7847 67.7151 27.7847 67.9581 27.9741C68.0931 28.0823 68.1741 28.2176 68.2281 28.3799C68.3091 28.6234 68.5521 28.7587 68.7951 28.6775C69.0381 28.5964 69.1731 28.3529 69.0921 28.1094C69.0381 27.9471 69.0381 27.7847 69.0921 27.6224C69.2001 27.2977 69.4431 27.1625 69.4431 27.1625H69.4161C69.5511 27.1083 69.7131 27.0272 69.8481 26.9731C69.9561 26.946 70.1451 26.946 70.334 27.0542C70.496 27.1354 70.604 27.2436 70.685 27.3789C70.82 27.5953 71.09 27.6765 71.306 27.5683C71.522 27.433 71.603 27.1624 71.495 26.946C71.414 26.8107 71.387 26.6213 71.387 26.459C71.414 26.1885 71.549 26.0261 71.63 25.972C71.792 25.8638 71.981 25.7285 72.143 25.6203C72.251 25.5933 72.386 25.5662 72.575 25.6203C72.737 25.6474 72.8719 25.7556 72.9799 25.8638C73.1419 26.0532 73.4389 26.0802 73.6279 25.9179C73.8169 25.7556 73.8439 25.458 73.6819 25.2686C73.5739 25.1333 73.4929 24.998 73.4929 24.8357C73.4659 24.5652 73.5739 24.3758 73.6279 24.2946C73.7089 24.2134 73.7899 24.1052 73.8709 24.0241C73.9519 23.9699 74.1139 23.8617 74.3839 23.8617C74.5459 23.8617 74.7079 23.9158 74.8429 24.0241C75.0319 24.1864 75.3289 24.1323 75.4908 23.9429C75.6528 23.7535 75.5988 23.4559 75.4099 23.2936C75.2749 23.1853 75.1669 23.0501 75.1399 22.8877C75.0319 22.5631 75.1669 22.3196 75.1669 22.3196L75.0049 22.536C75.1129 22.3466 75.2209 22.1843 75.3289 21.9949C75.3829 21.9408 75.5448 21.7785 75.8148 21.7244C75.9768 21.6973 76.1388 21.7244 76.3008 21.7785C76.5168 21.8867 76.7868 21.7785 76.8948 21.562C77.0028 21.3456 76.8948 21.075 76.6788 20.9668C76.5168 20.8857 76.4088 20.7774 76.3278 20.6422C76.1928 20.3987 76.2198 20.1822 76.2198 20.1011C76.2738 19.9658 76.3008 19.8576 76.3548 19.7223C76.4088 19.6411 76.5168 19.4788 76.7598 19.3706C76.9218 19.3165 77.0838 19.2894 77.2458 19.3165C77.4888 19.3706 77.7318 19.2082 77.7858 18.9647C77.8398 18.7212 77.6778 18.4777 77.4348 18.4236C77.2728 18.3966 77.1108 18.3154 77.0028 18.1801C76.8408 17.9908 76.7868 17.8014 76.7868 17.6931C76.8138 17.5579 76.8138 17.4226 76.8408 17.2873C76.8678 17.2062 76.9488 17.0168 77.1648 16.8544C77.2998 16.7462 77.4618 16.7192 77.6238 16.7192C77.8668 16.7192 78.0827 16.5298 78.0827 16.2592C77.9748 16.0428 77.7858 15.8263 77.5428 15.8263ZM66.5002 7.33102C66.5002 7.33102 70.712 7.38514 73.0339 11.9845L72.8449 12.3362L69.5511 13.4184C69.3891 13.4725 69.2271 13.4996 69.0651 13.4996C68.3901 13.5267 66.7972 13.3643 66.3382 11.3352C66.3112 11.227 66.3112 11.0917 66.3112 10.9564L66.2572 7.7098L66.5002 7.33102ZM64.9883 14.8794C65.7442 14.8794 66.3652 15.5017 66.3652 16.2592C66.3652 17.0168 65.7442 17.639 64.9883 17.639C64.2323 17.639 63.6113 17.0168 63.6113 16.2592C63.5843 15.5017 64.2053 14.8794 64.9883 14.8794ZM63.3413 7.33102L63.6113 7.60158V11.0917C63.6113 11.254 63.5843 11.4164 63.5573 11.5787C63.3683 12.228 62.7203 13.689 60.6414 13.4996C60.5064 13.4996 60.3984 13.4725 60.2904 13.4184L57.1856 12.4444L56.8886 12.0657C56.8886 12.0927 58.2655 8.11562 63.3413 7.33102ZM60.7494 19.9117L58.8325 22.536L58.3735 22.6984C58.3735 22.6984 55.0526 20.1011 55.9976 15.0417L56.3486 14.8794L59.6425 16.0157C59.8045 16.0698 59.9394 16.151 60.0744 16.2322C60.6144 16.6109 61.8024 17.7202 60.9384 19.6141C60.8844 19.6952 60.8034 19.8034 60.7494 19.9117ZM69.0111 24.5922C64.4483 26.9731 60.9924 24.5381 60.9924 24.5381L61.0194 24.0511L62.9633 21.4538C63.0443 21.3456 63.1253 21.2644 63.2063 21.1833C64.7723 19.8034 66.1762 20.6151 66.6892 21.0209C66.8242 21.1292 66.9322 21.2374 67.0402 21.3726L69.0921 24.1864L69.0111 24.5922ZM71.603 22.6713L71.144 22.509L69.2271 19.8846C69.1461 19.7764 69.0921 19.6682 69.0381 19.56C68.1741 17.6661 69.3621 16.5839 69.9021 16.2051C70.0371 16.1239 70.1991 16.0428 70.334 15.9887L73.6279 14.8524L73.9789 15.0147C74.9239 20.074 71.603 22.6713 71.603 22.6713Z" fill="white"></path></g><defs><clipPath id="clip0"><rect width="26" height="26" fill="white" transform="translate(51.9746 3.21875)"></rect></clipPath></defs></svg>